HIERARCHY
ROOT mixamorig:Hips
{
	OFFSET -0.000008 104.274872 1.554316
	CHANNELS 6 Xposition Yposition Zposition Xrotation Yrotation Zrotation
	JOINT mixamorig:Spine
	{
		OFFSET -0.000005 10.181595 0.131519
		CHANNELS 6 Xposition Yposition Zposition Xrotation Yrotation Zrotation
		JOINT mixamorig:Spine1
		{
			OFFSET -0.000000 9.893959 -1.470707
			CHANNELS 6 Xposition Yposition Zposition Xrotation Yrotation Zrotation
			JOINT mixamorig:Spine2
			{
				OFFSET -0.000000 9.220757 -1.370641
				CHANNELS 6 Xposition Yposition Zposition Xrotation Yrotation Zrotation
				JOINT mixamorig:Neck
				{
					OFFSET 0.000001 16.740417 -2.049036
					CHANNELS 6 Xposition Yposition Zposition Xrotation Yrotation Zrotation
					JOINT mixamorig:Head
					{
						OFFSET 0.000000 9.617874 1.685006
						CHANNELS 6 Xposition Yposition Zposition Xrotation Yrotation Zrotation
						JOINT mixamorig:HeadTop_End
						{
							OFFSET 0.000002 22.037354 7.501101
							CHANNELS 6 Xposition Yposition Zposition Xrotation Yrotation Zrotation
							End Site
							{
								OFFSET 0.000168 2310.654297 -282.823242
							}
						}
					}
				}
				JOINT mixamorig:RightShoulder
				{
					OFFSET -4.569970 11.014908 -2.160885
					CHANNELS 6 Xposition Yposition Zposition Xrotation Yrotation Zrotation
					JOINT mixamorig:RightArm
					{
						OFFSET -10.592851 -0.524811 -2.232101
						CHANNELS 6 Xposition Yposition Zposition Xrotation Yrotation Zrotation
						JOINT mixamorig:RightForeArm
						{
							OFFSET -27.841511 0.000031 -0.000004
							CHANNELS 6 Xposition Yposition Zposition Xrotation Yrotation Zrotation
							JOINT mixamorig:RightHand
							{
								OFFSET -28.328831 -0.000015 0.000015
								CHANNELS 6 Xposition Yposition Zposition Xrotation Yrotation Zrotation
								JOINT mixamorig:RightHandThumb1
								{
									OFFSET -2.464806 -1.573990 2.681852
									CHANNELS 6 Xposition Yposition Zposition Xrotation Yrotation Zrotation
									JOINT mixamorig:RightHandThumb2
									{
										OFFSET -3.215179 -1.872803 1.924282
										CHANNELS 6 Xposition Yposition Zposition Xrotation Yrotation Zrotation
										JOINT mixamorig:RightHandThumb3
										{
											OFFSET -2.654831 -1.527969 1.512609
											CHANNELS 6 Xposition Yposition Zposition Xrotation Yrotation Zrotation
											JOINT mixamorig:RightHandThumb4
											{
												OFFSET -2.018814 -1.152008 1.108052
												CHANNELS 6 Xposition Yposition Zposition Xrotation Yrotation Zrotation
												End Site
												{
													OFFSET -188.809540 -114.533607 132.431396
												}
											}
										}
									}
								}
								JOINT mixamorig:RightHandIndex1
								{
									OFFSET -9.108284 -0.517868 2.259835
									CHANNELS 6 Xposition Yposition Zposition Xrotation Yrotation Zrotation
									JOINT mixamorig:RightHandIndex2
									{
										OFFSET -3.699989 0.000000 0.001215
										CHANNELS 6 Xposition Yposition Zposition Xrotation Yrotation Zrotation
										JOINT mixamorig:RightHandIndex3
										{
											OFFSET -2.850006 0.000031 -0.000522
											CHANNELS 6 Xposition Yposition Zposition Xrotation Yrotation Zrotation
											JOINT mixamorig:RightHandIndex4
											{
												OFFSET -2.772186 -0.000015 -0.000020
												CHANNELS 6 Xposition Yposition Zposition Xrotation Yrotation Zrotation
												End Site
												{
													OFFSET -277.218445 0.000000 -0.050231
												}
											}
										}
									}
								}
								JOINT mixamorig:RightHandMiddle1
								{
									OFFSET -9.532516 -0.000031 -0.000023
									CHANNELS 6 Xposition Yposition Zposition Xrotation Yrotation Zrotation
									JOINT mixamorig:RightHandMiddle2
									{
										OFFSET -3.700005 -0.000015 0.003713
										CHANNELS 6 Xposition Yposition Zposition Xrotation Yrotation Zrotation
										JOINT mixamorig:RightHandMiddle3
										{
											OFFSET -2.949974 0.000015 -0.002054
											CHANNELS 6 Xposition Yposition Zposition Xrotation Yrotation Zrotation
											JOINT mixamorig:RightHandMiddle4
											{
												OFFSET -2.946640 0.000000 -0.000156
												CHANNELS 6 Xposition Yposition Zposition Xrotation Yrotation Zrotation
												End Site
												{
													OFFSET -294.664337 0.000000 -0.113670
												}
											}
										}
									}
								}
								JOINT mixamorig:RightHandRing1
								{
									OFFSET -9.103600 -0.043076 -1.865134
									CHANNELS 6 Xposition Yposition Zposition Xrotation Yrotation Zrotation
									JOINT mixamorig:RightHandRing2
									{
										OFFSET -3.379288 0.000000 -0.001055
										CHANNELS 6 Xposition Yposition Zposition Xrotation Yrotation Zrotation
										JOINT mixamorig:RightHandRing3
										{
											OFFSET -2.889687 -0.000015 0.000379
											CHANNELS 6 Xposition Yposition Zposition Xrotation Yrotation Zrotation
											JOINT mixamorig:RightHandRing4
											{
												OFFSET -2.638809 -0.000015 0.000941
												CHANNELS 6 Xposition Yposition Zposition Xrotation Yrotation Zrotation
												End Site
												{
													OFFSET -263.880371 0.000000 0.516020
												}
											}
										}
									}
								}
								JOINT mixamorig:RightHandPinky1
								{
									OFFSET -8.076683 -0.486710 -3.806280
									CHANNELS 6 Xposition Yposition Zposition Xrotation Yrotation Zrotation
									JOINT mixamorig:RightHandPinky2
									{
										OFFSET -3.600014 -0.000015 -0.003747
										CHANNELS 6 Xposition Yposition Zposition Xrotation Yrotation Zrotation
										JOINT mixamorig:RightHandPinky3
										{
											OFFSET -2.099983 0.000000 -0.005739
											CHANNELS 6 Xposition Yposition Zposition Xrotation Yrotation Zrotation
											JOINT mixamorig:RightHandPinky4
											{
												OFFSET -2.115768 -0.000031 -0.003680
												CHANNELS 6 Xposition Yposition Zposition Xrotation Yrotation Zrotation
												End Site
												{
													OFFSET -211.577087 0.000000 -0.350686
												}
											}
										}
									}
								}
							}
						}
					}
				}
				JOINT mixamorig:LeftShoulder
				{
					OFFSET 4.570447 11.014725 -2.160855
					CHANNELS 6 Xposition Yposition Zposition Xrotation Yrotation Zrotation
					JOINT mixamorig:LeftArm
					{
						OFFSET 10.592371 -0.524597 -2.232119
						CHANNELS 6 Xposition Yposition Zposition Xrotation Yrotation Zrotation
						JOINT mixamorig:LeftForeArm
						{
							OFFSET 27.841532 -0.000031 0.000026
							CHANNELS 6 Xposition Yposition Zposition Xrotation Yrotation Zrotation
							JOINT mixamorig:LeftHand
							{
								OFFSET 28.328846 -0.000061 0.000022
								CHANNELS 6 Xposition Yposition Zposition Xrotation Yrotation Zrotation
								JOINT mixamorig:LeftHandThumb1
								{
									OFFSET 2.466141 -1.576172 2.681732
									CHANNELS 6 Xposition Yposition Zposition Xrotation Yrotation Zrotation
									JOINT mixamorig:LeftHandThumb2
									{
										OFFSET 3.217812 -1.872070 1.916482
										CHANNELS 6 Xposition Yposition Zposition Xrotation Yrotation Zrotation
										JOINT mixamorig:LeftHandThumb3
										{
											OFFSET 2.656029 -1.528778 1.514513
											CHANNELS 6 Xposition Yposition Zposition Xrotation Yrotation Zrotation
											JOINT mixamorig:LeftHandThumb4
											{
												OFFSET 2.020889 -1.154053 1.115139
												CHANNELS 6 Xposition Yposition Zposition Xrotation Yrotation Zrotation
												End Site
												{
													OFFSET 190.885437 -115.081749 130.048782
												}
											}
										}
									}
								}
								JOINT mixamorig:LeftHandIndex1
								{
									OFFSET 9.109314 -0.518021 2.259871
									CHANNELS 6 Xposition Yposition Zposition Xrotation Yrotation Zrotation
									JOINT mixamorig:LeftHandIndex2
									{
										OFFSET 3.699989 0.000000 -0.000322
										CHANNELS 6 Xposition Yposition Zposition Xrotation Yrotation Zrotation
										JOINT mixamorig:LeftHandIndex3
										{
											OFFSET 2.850006 0.000000 0.000352
											CHANNELS 6 Xposition Yposition Zposition Xrotation Yrotation Zrotation
											JOINT mixamorig:LeftHandIndex4
											{
												OFFSET 2.774864 -0.000031 -0.000027
												CHANNELS 6 Xposition Yposition Zposition Xrotation Yrotation Zrotation
												End Site
												{
													OFFSET 277.486267 0.000000 -0.009857
												}
											}
										}
									}
								}
								JOINT mixamorig:LeftHandMiddle1
								{
									OFFSET 9.533394 0.000061 0.000044
									CHANNELS 6 Xposition Yposition Zposition Xrotation Yrotation Zrotation
									JOINT mixamorig:LeftHandMiddle2
									{
										OFFSET 3.699989 -0.000015 -0.000231
										CHANNELS 6 Xposition Yposition Zposition Xrotation Yrotation Zrotation
										JOINT mixamorig:LeftHandMiddle3
										{
											OFFSET 2.949997 -0.000015 -0.000059
											CHANNELS 6 Xposition Yposition Zposition Xrotation Yrotation Zrotation
											JOINT mixamorig:LeftHandMiddle4
											{
												OFFSET 2.952896 0.000031 0.000063
												CHANNELS 6 Xposition Yposition Zposition Xrotation Yrotation Zrotation
												End Site
												{
													OFFSET 295.289337 0.000000 0.022810
												}
											}
										}
									}
								}
								JOINT mixamorig:LeftHandRing1
								{
									OFFSET 9.104523 -0.042999 -1.865074
									CHANNELS 6 Xposition Yposition Zposition Xrotation Yrotation Zrotation
									JOINT mixamorig:LeftHandRing2
									{
										OFFSET 3.150009 -0.000031 0.000043
										CHANNELS 6 Xposition Yposition Zposition Xrotation Yrotation Zrotation
										JOINT mixamorig:LeftHandRing3
										{
											OFFSET 2.949982 -0.000015 0.000040
											CHANNELS 6 Xposition Yposition Zposition Xrotation Yrotation Zrotation
											JOINT mixamorig:LeftHandRing4
											{
												OFFSET 2.644348 0.000000 0.000057
												CHANNELS 6 Xposition Yposition Zposition Xrotation Yrotation Zrotation
												End Site
												{
													OFFSET 264.434631 0.000000 0.012105
												}
											}
										}
									}
								}
								JOINT mixamorig:LeftHandPinky1
								{
									OFFSET 8.077789 -0.486847 -3.806259
									CHANNELS 6 Xposition Yposition Zposition Xrotation Yrotation Zrotation
									JOINT mixamorig:LeftHandPinky2
									{
										OFFSET 3.599953 0.000031 0.014727
										CHANNELS 6 Xposition Yposition Zposition Xrotation Yrotation Zrotation
										JOINT mixamorig:LeftHandPinky3
										{
											OFFSET 2.100021 0.000015 0.007705
											CHANNELS 6 Xposition Yposition Zposition Xrotation Yrotation Zrotation
											JOINT mixamorig:LeftHandPinky4
											{
												OFFSET 2.125504 0.000031 0.007517
												CHANNELS 6 Xposition Yposition Zposition Xrotation Yrotation Zrotation
												End Site
												{
													OFFSET 212.550781 0.000000 0.625752
												}
											}
										}
									}
								}
							}
						}
					}
				}
			}
		}
	}
	JOINT mixamorig:RightUpLeg
	{
		OFFSET -8.207787 -6.751648 -1.599560
		CHANNELS 6 Xposition Yposition Zposition Xrotation Yrotation Zrotation
		JOINT mixamorig:RightLeg
		{
			OFFSET -0.000002 -44.370117 0.345942
			CHANNELS 6 Xposition Yposition Zposition Xrotation Yrotation Zrotation
			JOINT mixamorig:RightFoot
			{
				OFFSET 0.000003 -44.423679 -3.043532
				CHANNELS 6 Xposition Yposition Zposition Xrotation Yrotation Zrotation
				JOINT mixamorig:RightToeBase
				{
					OFFSET -0.000002 -8.728671 10.710558
					CHANNELS 6 Xposition Yposition Zposition Xrotation Yrotation Zrotation
					JOINT mixamorig:RightToe_End
					{
						OFFSET -0.000001 -0.000679 9.278119
						CHANNELS 6 Xposition Yposition Zposition Xrotation Yrotation Zrotation
						End Site
						{
							OFFSET 0.000000 -0.067690 927.812134
						}
					}
				}
			}
		}
	}
	JOINT mixamorig:LeftUpLeg
	{
		OFFSET 8.207793 -6.751686 -1.599556
		CHANNELS 6 Xposition Yposition Zposition Xrotation Yrotation Zrotation
		JOINT mixamorig:LeftLeg
		{
			OFFSET -0.000004 -44.370014 0.346954
			CHANNELS 6 Xposition Yposition Zposition Xrotation Yrotation Zrotation
			JOINT mixamorig:LeftFoot
			{
				OFFSET -0.000001 -44.423672 -3.044401
				CHANNELS 6 Xposition Yposition Zposition Xrotation Yrotation Zrotation
				JOINT mixamorig:LeftToeBase
				{
					OFFSET -0.000002 -8.728669 10.710558
					CHANNELS 6 Xposition Yposition Zposition Xrotation Yrotation Zrotation
					JOINT mixamorig:LeftToe_End
					{
						OFFSET -0.000003 -0.000679 9.278133
						CHANNELS 6 Xposition Yposition Zposition Xrotation Yrotation Zrotation
						End Site
						{
							OFFSET 0.000000 -0.068021 927.813477
						}
					}
				}
			}
		}
	}
}
MOTION
Frames: 3
Frame Time: 0.033333
0.000006 104.270477 1.554256 0.000010 0.000003 -0.000113 -0.000005 10.181587 0.131522 0.000001 -0.000003 0.000084 -0.000000 9.893967 -1.470711 0.000001 0.000000 -0.000000 -0.000000 9.220802 -1.370642 0.000000 -0.000000 -0.000000 0.000001 16.740433 -2.049030 0.000000 -0.000000 -0.000000 0.000000 9.617859 1.685014 0.000000 0.000000 0.000000 0.000002 22.037384 7.501101 0.000000 -0.000000 0.000000 -4.569968 11.014880 -2.160881 0.000008 0.000001 -0.000038 -10.592768 -0.524848 -2.231735 88.296956 64.915764 -63.383015 -27.841505 0.000001 0.000578 57.340504 105.185152 -71.129911 -28.328842 0.000022 0.000021 -0.000322 -0.000044 0.000006 -2.464835 -1.574126 2.681967 139.250181 -183.560023 168.603903 -3.215076 -1.873029 1.924432 -68.366171 -19.103336 338.344622 -2.654674 -1.528289 1.512864 89.518242 212.060052 -216.528116 -2.018823 -1.152010 1.108057 -0.000002 -0.000000 0.000007 -9.108321 -0.517942 2.260329 -114.694804 13.015154 20.228351 -3.700014 0.000352 0.001389 75.992336 3.582107 -2.782572 -2.849937 0.000373 -0.000444 69.637453 -12.168147 8.479831 -2.772163 -0.000015 -0.000016 0.000000 -0.000000 -0.000000 -9.532523 -0.000161 0.000453 -110.794097 10.985529 15.997509 -3.699924 0.000350 0.003801 71.643411 -12.700067 9.227948 -2.949903 0.000332 -0.001984 68.855950 -15.774829 10.851639 -2.946640 -0.000013 -0.000155 0.000001 0.000000 0.000000 -9.103631 -0.043193 -1.864689 73.684976 173.574832 -171.473306 -3.379026 0.000289 -0.001012 71.191376 -37.086554 27.001570 -2.889547 0.000337 0.000423 69.768408 -25.498464 17.916145 -2.638819 -0.000016 0.000940 0.000002 0.000001 -0.000002 -8.076665 -0.486867 -3.805875 -103.942488 0.334129 0.273262 -3.599965 -0.000248 -0.003351 -103.188060 -9.367313 -12.255925 -2.099940 -0.000236 -0.005367 -105.974319 -10.008829 -13.559700 -2.115773 -0.000055 -0.003681 0.000001 -0.000001 -0.000001 4.570446 11.014691 -2.160851 -0.000018 0.000010 -0.000021 10.592539 -0.524533 -2.232397 75.161649 -64.902172 52.149526 27.841740 -0.000068 -0.000108 236.343342 -76.254172 248.616154 28.328833 -0.000014 0.000032 0.000020 -0.000089 -0.000000 2.466160 -1.576117 2.681889 141.197441 196.639275 -167.909751 3.217849 -1.871943 1.916601 -60.031981 10.058903 17.228380 2.656060 -1.528754 1.514609 -82.514498 31.287546 31.697853 2.020894 -1.154052 1.115151 0.000004 0.000002 0.000004 9.109276 -0.517815 2.260121 -102.551868 -13.489930 -16.771791 3.700021 0.000159 -0.000471 -101.171071 -172.630531 186.072221 2.849977 0.000226 0.000175 -93.928741 -187.640159 172.864329 2.774872 -0.000029 -0.000027 0.000000 -0.000002 0.000000 9.533362 0.000259 0.000291 -97.755409 -11.047665 -12.635610 3.699975 0.000165 -0.000415 -110.585516 -188.473866 174.123980 2.949966 0.000185 -0.000246 -102.523277 -191.650218 170.643670 2.952863 -0.000016 0.000065 -0.000001 -0.000000 0.000001 9.104520 -0.042835 -1.864827 -93.288254 -5.467698 -5.791835 3.149934 0.000162 -0.000169 61.121485 25.760275 -15.378898 2.949923 0.000213 -0.000199 78.530653 17.634240 -14.452622 2.644323 0.000018 0.000053 0.000000 0.000001 -0.000005 8.077770 -0.486681 -3.806011 -95.124010 -1.476722 -2.113856 3.599962 0.000209 0.014946 -94.145080 1.248359 0.880247 2.100004 0.000222 0.007947 -95.231518 0.181709 -0.244495 2.125497 -0.000001 0.007523 0.000001 0.000000 -0.000000 -8.207786 -6.751667 -1.599560 -0.077001 -0.000003 0.000080 -0.000002 -44.370110 0.345938 0.153719 -0.000000 -0.000000 0.000000 -44.423679 -3.043532 -0.076700 0.000000 -0.000002 -0.000006 -8.728667 10.710559 -0.000009 -0.000000 -0.000000 -0.000001 -0.000679 9.278123 0.000000 -0.000000 -0.000000 8.207792 -6.751710 -1.599556 -0.074518 -0.000003 0.000081 -0.000002 -44.370014 0.346960 0.148822 0.000002 0.000000 -0.000001 -44.423664 -3.044403 -0.074314 0.000000 -0.000002 -0.000004 -8.728671 10.710558 0.000007 -0.000000 -0.000000 0.000000 -0.000680 9.278137 -0.000000 0.000000 -0.000001 
0.000006 104.270477 1.554256 0.000010 0.000003 -0.000113 -0.000005 10.181587 0.131522 0.000001 -0.000003 0.000084 -0.000000 9.893967 -1.470711 0.000001 0.000000 -0.000000 -0.000000 9.220802 -1.370642 0.000000 -0.000000 -0.000000 0.000001 16.740433 -2.049030 0.000000 -0.000000 -0.000000 0.000000 9.617859 1.685014 0.000000 0.000000 0.000000 0.000002 22.037384 7.501101 0.000000 -0.000000 0.000000 -4.569968 11.014880 -2.160881 0.000008 0.000001 -0.000038 -10.592770 -0.524849 -2.231734 88.214345 64.828105 -63.222669 -27.841501 0.000000 0.000574 58.441988 105.762522 -72.936701 -28.328836 0.000022 0.000016 -0.000320 -0.000044 0.000007 -2.464815 -1.574116 2.681952 140.385768 -182.933694 168.911207 -3.215084 -1.873004 1.924423 -66.670344 -17.375247 339.325519 -2.654679 -1.528268 1.512882 91.278928 210.411026 -214.962541 -2.018826 -1.152014 1.108052 -0.000006 -0.000001 0.000002 -9.108309 -0.517929 2.260339 -116.005108 13.330493 21.229601 -3.700043 0.000344 0.001409 80.712045 7.571569 -6.417910 -2.849957 0.000356 -0.000456 67.650380 -9.743477 6.537998 -2.772167 -0.000016 -0.000018 0.000000 0.000002 0.000001 -9.532532 -0.000140 0.000443 -112.263359 11.416984 17.072022 -3.699943 0.000366 0.003844 78.048934 -9.427170 7.699596 -2.949905 0.000322 -0.001958 68.743422 -14.490841 9.942633 -2.946615 0.000029 -0.000156 -0.000000 -0.000001 -0.000001 -9.103630 -0.043187 -1.864687 73.080285 174.112628 -172.103774 -3.378988 0.000307 -0.000976 79.409712 -42.083944 35.430667 -2.889527 0.000353 0.000415 67.704141 -26.606524 18.012612 -2.638821 -0.000013 0.000942 0.000002 0.000001 0.000002 -8.076665 -0.486871 -3.805890 -103.194910 -0.298544 -0.530246 -3.599939 -0.000275 -0.003346 -104.966914 -14.249995 -18.989140 -2.099892 -0.000275 -0.005399 -105.591009 -16.450024 -21.887372 -2.115771 -0.000052 -0.003678 -0.000001 -0.000000 -0.000002 4.570446 11.014691 -2.160851 -0.000018 0.000010 -0.000021 10.592539 -0.524532 -2.232404 75.350510 -64.741956 52.163937 27.841753 -0.000052 -0.000099 234.619129 -75.903373 247.013026 28.328842 -0.000014 0.000017 0.000020 -0.000088 -0.000001 2.466175 -1.576134 2.681876 141.427987 197.661262 -167.840301 3.217845 -1.871948 1.916591 -60.890453 10.529978 17.575245 2.656048 -1.528775 1.514586 -84.104238 32.617244 32.968251 2.020895 -1.154066 1.115157 0.000004 -0.000000 0.000001 9.109273 -0.517820 2.260108 -101.070537 -13.671352 -16.559497 3.700019 0.000151 -0.000492 -104.040986 -171.914714 186.328872 2.849972 0.000244 0.000176 -92.341364 -187.474909 172.822774 2.774889 -0.000029 -0.000025 -0.000000 -0.000002 -0.000001 9.533368 0.000231 0.000283 -97.991119 -11.061951 -12.704148 3.699971 0.000145 -0.000419 -114.524213 -191.407159 172.650749 2.949969 0.000174 -0.000249 -102.109566 -192.328018 170.024664 2.952869 -0.000030 0.000059 -0.000000 -0.000002 0.000002 9.104516 -0.042826 -1.864837 -92.909738 -5.784219 -6.086635 3.149928 0.000143 -0.000166 54.511600 27.893021 -14.580646 2.949911 0.000216 -0.000176 78.006668 18.917479 -15.368072 2.644331 0.000016 0.000054 0.000001 0.000003 0.000001 8.077788 -0.486690 -3.806024 -94.252902 -1.117983 -1.698760 3.599965 0.000185 0.014960 -90.441847 2.477246 2.054628 2.100000 0.000194 0.007919 -93.127922 0.446090 0.041544 2.125501 0.000001 0.007514 0.000000 0.000001 0.000001 -8.207786 -6.751667 -1.599560 -0.077001 -0.000003 0.000080 -0.000002 -44.370110 0.345938 0.153719 -0.000000 -0.000000 0.000000 -44.423679 -3.043532 -0.076700 0.000000 -0.000002 -0.000006 -8.728667 10.710559 -0.000009 -0.000000 -0.000000 -0.000001 -0.000679 9.278123 0.000000 -0.000000 -0.000000 8.207792 -6.751710 -1.599556 -0.074518 -0.000003 0.000081 -0.000002 -44.370014 0.346960 0.148822 0.000002 0.000000 -0.000001 -44.423664 -3.044403 -0.074314 0.000000 -0.000002 -0.000004 -8.728671 10.710558 0.000007 -0.000000 -0.000000 0.000000 -0.000680 9.278137 -0.000000 0.000000 -0.000001 
0.000006 104.270477 1.554256 0.000010 0.000003 -0.000113 -0.000005 10.181587 0.131522 0.000001 -0.000003 0.000084 -0.000000 9.893967 -1.470711 0.000001 0.000000 -0.000000 -0.000000 9.220802 -1.370642 0.000000 -0.000000 -0.000000 0.000001 16.740433 -2.049030 0.000000 -0.000000 -0.000000 0.000000 9.617859 1.685014 0.000000 0.000000 0.000000 0.000002 22.037384 7.501101 0.000000 -0.000000 0.000000 -4.569968 11.014880 -2.160881 0.000008 0.000001 -0.000038 -10.592767 -0.524848 -2.231735 88.073179 65.198022 -63.461173 -27.841509 0.000013 0.000576 59.189955 106.343846 -74.356014 -28.328829 0.000006 0.000023 -0.000323 -0.000044 0.000007 -2.464813 -1.574088 2.681959 142.343997 -181.833979 169.471419 -3.215089 -1.873003 1.924411 -64.529209 -16.508639 340.311990 -2.654681 -1.528295 1.512849 94.832949 208.797763 -212.500750 -2.018835 -1.151976 1.108066 -0.000001 0.000002 0.000005 -9.108322 -0.517936 2.260336 -114.329211 12.656837 19.544733 -3.700039 0.000344 0.001451 89.099517 7.405083 -7.268497 -2.849961 0.000381 -0.000404 73.154031 -10.347863 7.688407 -2.772170 -0.000017 -0.000024 0.000000 -0.000001 -0.000001 -9.532526 -0.000131 0.000441 -110.701261 10.243550 14.909371 -3.699917 0.000414 0.003848 85.394522 -12.063851 11.193835 -2.949897 0.000330 -0.001976 72.816695 -14.606575 10.801951 -2.946624 0.000001 -0.000155 -0.000001 0.000002 -0.000000 -9.103625 -0.043176 -1.864689 73.373362 174.782997 -173.044482 -3.378892 0.000230 -0.000983 84.353232 -57.477176 52.842100 -2.889539 0.000352 0.000385 66.485751 -29.037788 19.257742 -2.638817 0.000000 0.000939 -0.000000 -0.000000 0.000000 -8.076666 -0.486852 -3.805869 -102.693369 -0.696749 -1.024419 -3.599944 -0.000261 -0.003376 -99.984059 -14.806754 -18.055619 -2.099881 -0.000273 -0.005463 -96.228944 -19.659863 -22.155266 -2.115780 -0.000042 -0.003677 0.000005 0.000001 -0.000001 4.570446 11.014691 -2.160851 -0.000018 0.000010 -0.000021 10.592535 -0.524524 -2.232400 75.666844 -64.987788 52.637946 27.841747 -0.000073 -0.000103 231.765093 -75.476295 244.168034 28.328829 -0.000012 0.000026 0.000022 -0.000088 0.000001 2.466175 -1.576138 2.681900 139.590229 199.997023 -167.466143 3.217852 -1.871960 1.916577 -61.631652 8.868027 17.635776 2.656062 -1.528773 1.514614 -87.466754 33.077766 35.015317 2.020898 -1.154071 1.115160 -0.000002 0.000005 0.000006 9.109259 -0.517834 2.260109 -103.605145 -15.110959 -19.127796 3.700031 0.000097 -0.000461 -112.762960 -165.814904 189.469775 2.849979 0.000205 0.000164 -98.803782 -186.324856 174.577012 2.774873 -0.000048 -0.000035 0.000001 0.000000 -0.000001 9.533354 0.000223 0.000292 -98.274094 -13.462857 -15.532265 3.700005 0.000112 -0.000394 -119.504500 -183.334667 178.053879 2.949975 0.000169 -0.000225 -104.320539 -190.019606 172.210529 2.952873 -0.000015 0.000066 0.000001 -0.000000 0.000000 9.104513 -0.042844 -1.864827 -91.466806 -7.640955 -7.839915 3.149939 0.000139 -0.000148 53.367891 24.942131 -12.685241 2.949902 0.000208 -0.000179 78.999013 18.901466 -15.625427 2.644315 0.000031 0.000061 0.000001 0.000000 -0.000002 8.077772 -0.486726 -3.806026 -90.920459 -2.347869 -2.842082 3.599958 0.000185 0.014966 -86.826751 2.150994 1.622349 2.099999 0.000182 0.007921 -91.651658 1.885014 1.511202 2.125504 0.000000 0.007532 0.000000 0.000000 -0.000000 -8.207786 -6.751667 -1.599560 -0.077001 -0.000003 0.000080 -0.000002 -44.370110 0.345938 0.153719 -0.000000 -0.000000 0.000000 -44.423679 -3.043532 -0.076700 0.000000 -0.000002 -0.000006 -8.728667 10.710559 -0.000009 -0.000000 -0.000000 -0.000001 -0.000679 9.278123 0.000000 -0.000000 -0.000000 8.207792 -6.751710 -1.599556 -0.074518 -0.000003 0.000081 -0.000002 -44.370014 0.346960 0.148822 0.000002 0.000000 -0.000001 -44.423664 -3.044403 -0.074314 0.000000 -0.000002 -0.000004 -8.728671 10.710558 0.000007 -0.000000 -0.000000 0.000000 -0.000680 9.278137 -0.000000 0.000000 -0.000001 
